<mxfile host="app.diagrams.net" modified="2023-12-20T09:12:14.849Z" agent="Mozilla/5.0 (Windows NT 10.0; Win64; x64) AppleWebKit/537.36 (KHTML, like Gecko) Chrome/120.0.0.0 Safari/537.36" version="22.1.11" etag="tdszuIOR_39JHZDjjtXE" type="github">
  <diagram name="Page-1" id="5ajnSnswu7xf0T0-dUDN">
    <mxGraphModel>
      <root>
        <mxCell id="0" />
        <mxCell id="1" parent="0" />
      </root>
    </mxGraphModel>
  </diagram>
</mxfile>
